<svg width="390" height="2200" viewBox="0 0 390 2200" fill="none" xmlns="http://www.w3.org/2000/svg">
  <rect width="390" height="2200" fill="#0B0F14"/>
  <rect x="16" y="20" width="358" height="60" rx="14" fill="#121824" stroke="#263041"/>
  <rect x="32" y="36" width="120" height="28" rx="8" fill="#171F2E"/>
  <rect x="240" y="32" width="120" height="36" rx="10" fill="#5B8CFF"/>

  <rect x="16" y="100" width="358" height="420" rx="24" fill="#121824" stroke="#263041"/>
  <rect x="32" y="132" width="200" height="20" rx="8" fill="#171F2E"/>
  <rect x="32" y="164" width="326" height="120" rx="12" fill="#1C2536"/>
  <rect x="32" y="296" width="140" height="40" rx="10" fill="#5B8CFF"/>
  <rect x="186" y="296" width="140" height="40" rx="10" fill="#2F6BFF"/>
  <rect x="32" y="350" width="326" height="140" rx="20" fill="#171F2E" stroke="#263041"/>

  <rect x="16" y="540" width="358" height="520" rx="24" fill="#121824" stroke="#263041"/>
  <rect x="32" y="572" width="260" height="20" rx="8" fill="#171F2E"/>
  <rect x="32" y="604" width="310" height="60" rx="12" fill="#1C2536"/>
  <rect x="32" y="680" width="150" height="150" rx="16" fill="#171F2E" stroke="#263041"/>
  <rect x="208" y="680" width="150" height="150" rx="16" fill="#171F2E" stroke="#263041"/>
  <rect x="32" y="850" width="150" height="150" rx="16" fill="#171F2E" stroke="#263041"/>
  <rect x="208" y="850" width="150" height="150" rx="16" fill="#171F2E" stroke="#263041"/>

  <rect x="16" y="1080" width="358" height="320" rx="24" fill="#121824" stroke="#263041"/>
  <rect x="32" y="1112" width="200" height="20" rx="8" fill="#171F2E"/>
  <rect x="32" y="1144" width="320" height="64" rx="12" fill="#1C2536"/>
  <rect x="32" y="1220" width="326" height="140" rx="16" fill="#171F2E" stroke="#263041"/>

  <rect x="16" y="1420" width="358" height="340" rx="24" fill="#121824" stroke="#263041"/>
  <rect x="32" y="1452" width="260" height="20" rx="8" fill="#171F2E"/>
  <rect x="32" y="1484" width="320" height="72" rx="12" fill="#1C2536"/>
  <rect x="32" y="1570" width="326" height="160" rx="16" fill="#171F2E" stroke="#263041"/>

  <rect x="16" y="1780" width="358" height="300" rx="24" fill="#121824" stroke="#263041"/>
  <rect x="32" y="1812" width="220" height="20" rx="8" fill="#171F2E"/>
  <rect x="32" y="1844" width="320" height="72" rx="12" fill="#1C2536"/>
  <rect x="32" y="1930" width="326" height="120" rx="16" fill="#171F2E" stroke="#263041"/>
</svg>
