<svg width="81" height="86" viewBox="0 0 81 86" fill="none" xmlns="http://www.w3.org/2000/svg">
<path d="M75.9269 42.0173C75.9269 39.924 75.0498 37.9165 73.4885 36.4363C71.9271 34.9561 69.8095 34.1246 67.6015 34.1246C67.3044 34.1246 67.0137 34.1397 66.7262 34.167L78.1632 2.19324H29.5654L40.9832 34.1397C40.8171 34.1397 40.6478 34.1246 40.4785 34.1246C38.4929 34.1263 36.5733 34.8006 35.0658 36.0257C33.5582 37.2509 32.562 38.9463 32.2568 40.8064C31.9515 42.6664 32.3572 44.5686 33.4008 46.1701C34.4443 47.7716 36.0571 48.9669 37.9483 49.5405C36.1776 52.4315 33.9725 55.0627 31.4023 57.3515C28.0576 60.3824 24.0844 62.7206 19.7353 64.2175C17.2983 63.1218 15.3924 61.188 14.4045 58.8086C13.4166 56.4293 13.4207 53.7827 14.4161 51.4062C14.6621 50.861 14.9113 50.3098 15.1509 49.7586C17.0081 49.3442 18.659 48.3382 19.8278 46.9085C20.9965 45.4789 21.6124 43.7123 21.5723 41.9039C21.5322 40.0955 20.8386 38.355 19.6076 36.9731C18.3765 35.5913 16.6824 34.6519 14.8085 34.3118C12.9346 33.9718 10.9943 34.2519 9.31203 35.1051C7.62973 35.9583 6.30727 37.3331 5.56568 38.9996C4.82408 40.6662 4.70828 42.5235 5.23762 44.2613C5.76696 45.9991 6.90937 47.5119 8.47394 48.5471C5.81447 53.1154 3.78622 57.9892 2.43914 63.0484C1.30822 69.5146 2.43914 76.3746 8.33337 80.2543C22.0706 89.2828 36.9867 74.6573 52.711 70.9836C58.4104 69.6509 64.6656 69.866 69.6845 67.1068C71.4987 66.1289 73.0631 64.7838 74.2663 63.1673C75.4696 61.5507 76.282 59.7025 76.6457 57.7543C76.9792 55.8988 76.9161 53.9987 76.46 52.1669C76.004 50.335 75.1643 48.6086 73.9909 47.0903C75.2434 45.6714 75.9288 43.8796 75.9269 42.0294V42.0173ZM48.8071 42.0597V42.0324C48.8079 40.6745 48.439 39.3393 47.736 38.1561C47.0331 36.9729 46.0199 35.9817 44.7945 35.2785L53.8803 17.8303L62.9852 35.439C61.8429 36.1586 60.9064 37.1351 60.2592 38.2814C59.612 39.4277 59.2743 40.708 59.2761 42.0082C59.2761 42.0658 59.2761 42.1233 59.2761 42.1808L48.8071 42.0597Z" fill="white"/>
<path d="M77.9618 42.019C77.958 39.7307 77.1128 37.5152 75.5716 35.7539C74.0304 33.9927 71.8898 32.7959 69.5182 32.3697L81 0.265747H26.7284L38.2293 32.4333C36.2205 32.8574 34.3906 33.8392 32.9729 35.2535C31.5552 36.6677 30.6141 38.4503 30.2696 40.3738C29.9251 42.2973 30.1929 44.2745 31.0387 46.0531C31.8845 47.8317 33.2701 49.3311 35.0186 50.36C33.5742 52.395 31.8939 54.2703 30.0093 55.9509C27.092 58.5961 23.6645 60.6835 19.9141 62.0992C18.1536 61.1299 16.8192 59.5932 16.1542 57.7691C15.4892 55.9449 15.5378 53.955 16.2913 52.1621L16.4191 51.8804L16.6555 51.3504C18.7837 50.6504 20.6135 49.3121 21.8676 47.5381C23.1218 45.7641 23.7321 43.6509 23.6062 41.5187C23.4802 39.3864 22.6248 37.3511 21.1695 35.7209C19.7142 34.0907 17.7383 32.9545 15.5409 32.4842C13.3435 32.0139 11.0443 32.2352 8.99145 33.1146C6.93858 33.994 5.24385 35.4835 4.16384 37.3577C3.08384 39.2319 2.67738 41.3886 3.00602 43.5014C3.33466 45.6142 4.38049 47.5679 5.98516 49.0668C5.64013 49.7664 5.27593 50.4751 4.90215 51.205C2.83171 54.8159 1.32514 58.6927 0.429568 62.714C-1.05597 71.1943 1.34006 77.9876 7.17359 81.8188C10.3096 83.9449 14.0716 85.0818 17.927 85.0686C24.7381 85.0686 31.629 81.8249 38.3731 78.6509C43.0848 76.2218 48.0562 74.2755 53.2029 72.8449C55.1015 72.432 57.0207 72.1096 58.9533 71.8787C63.0462 71.5689 67.0372 70.5116 70.7067 68.7653C72.777 67.6446 74.5619 66.106 75.935 64.2584C77.308 62.4107 78.2356 60.2994 78.6519 58.074C79.3316 54.2939 78.5489 50.4081 76.4475 47.1314C77.4417 45.5929 77.9638 43.8233 77.9618 42.019ZM73.895 42.019C73.895 43.1991 73.5259 44.3527 72.8343 45.3338C72.1428 46.315 71.1599 47.0798 70.0099 47.5314C68.8599 47.983 67.5944 48.1011 66.3736 47.8709C65.1528 47.6407 64.0314 47.0724 63.1512 46.238C62.271 45.4036 61.6716 44.3404 61.4288 43.183C61.1859 42.0257 61.3106 40.826 61.7869 39.7358C62.2633 38.6455 63.0699 37.7137 64.1049 37.0581C65.1399 36.4025 66.3567 36.0526 67.6014 36.0526C69.2698 36.055 70.8691 36.6843 72.0488 37.8028C73.2286 38.9212 73.8924 40.4374 73.895 42.019ZM75.323 4.12125L65.183 32.4696C64.749 32.5699 64.3222 32.6964 63.9051 32.8482L53.8897 13.4647L43.8424 32.7331C43.4047 32.5901 42.9576 32.4748 42.5038 32.3879L32.399 4.12125H75.323ZM40.4784 36.0526C41.7231 36.0526 42.9399 36.4025 43.9749 37.0581C45.0099 37.7137 45.8165 38.6455 46.2929 39.7358C46.7692 40.826 46.8938 42.0257 46.651 43.183C46.4082 44.3404 45.8088 45.4036 44.9286 46.238C44.0484 47.0724 42.927 47.6407 41.7062 47.8709C40.4854 48.1011 39.2199 47.983 38.0699 47.5314C36.9199 47.0798 35.937 46.315 35.2455 45.3338C34.5539 44.3527 34.1848 43.1991 34.1848 42.019C34.1865 40.4371 34.8501 38.9205 36.03 37.8019C37.2099 36.6833 38.8097 36.0542 40.4784 36.0526ZM13.2499 36.1101C14.4947 36.1101 15.7115 36.46 16.7464 37.1156C17.7814 37.7712 18.5881 38.7031 19.0644 39.7933C19.5408 40.8835 19.6654 42.0832 19.4226 43.2406C19.1797 44.398 18.5803 45.4611 17.7001 46.2955C16.82 47.13 15.6986 47.6982 14.4777 47.9284C13.2569 48.1586 11.9915 48.0405 10.8415 47.5889C9.69147 47.1373 8.70855 46.3726 8.01701 45.3914C7.32546 44.4102 6.95635 43.2566 6.95635 42.0766C6.95804 40.4952 7.62121 38.979 8.80043 37.8605C9.97964 36.742 11.5818 36.1125 13.2499 36.1101ZM74.6425 57.4138C74.3272 59.0834 73.6282 60.6668 72.5953 62.0518C71.5623 63.4367 70.2206 64.5892 68.6652 65.4277C65.4396 66.9152 61.9457 67.8093 58.3687 68.0626C56.3497 68.3382 54.2635 68.6229 52.2221 69.1014C46.7879 70.5938 41.5395 72.6379 36.5681 75.1982C26.46 79.9562 17.7193 84.0661 9.50253 78.6599C3.47412 74.6984 3.75206 67.369 4.45489 63.353C5.28077 59.6966 6.66139 56.1729 8.5537 52.892C8.84761 52.3165 9.13514 51.7562 9.41627 51.199C10.2748 51.523 11.1752 51.7369 12.0934 51.835C11.279 54.5577 11.5056 57.4656 12.7332 60.0452C13.9607 62.6249 16.1103 64.7104 18.8023 65.9334L19.585 66.3151L20.4124 66.0334C25.0292 64.455 29.247 61.9791 32.7951 58.7646C35.1379 56.6731 37.1963 54.3127 38.9226 51.7381C41.1305 52.0564 43.3878 51.6895 45.3578 50.6919C47.3277 49.6944 48.9046 48.1198 49.8532 46.203C50.8018 44.2862 51.0712 42.13 50.6213 40.0562C50.1713 37.9823 49.0261 36.102 47.3566 34.6957L53.8674 22.2145L60.4453 34.935C58.5737 36.6449 57.4492 38.9599 57.2954 41.4197C57.1415 43.8795 57.9694 46.3042 59.6146 48.2119C61.2599 50.1196 63.602 51.3707 66.1755 51.7165C68.749 52.0623 71.3656 51.4775 73.5052 50.0783C74.692 52.3472 75.089 54.9144 74.6393 57.4108L74.6425 57.4138Z" fill="#1E1E1E"/>
</svg>
