<?xml version="1.0" standalone="no"?>
<!DOCTYPE svg PUBLIC "-//W3C//DTD SVG 20010904//EN"
 "http://www.w3.org/TR/2001/REC-SVG-20010904/DTD/svg10.dtd">
<svg version="1.0" xmlns="http://www.w3.org/2000/svg"
 width="500.000000pt" height="500.000000pt" viewBox="0 0 500.000000 500.000000"
 preserveAspectRatio="xMidYMid meet">

<g transform="translate(0.000000,500.000000) scale(0.100000,-0.100000)"
fill="#000000" stroke="none">
<path d="M3665 4760 c-3 -5 1 -10 10 -10 9 0 13 5 10 10 -3 6 -8 10 -10 10 -2
0 -7 -4 -10 -10z"/>
<path d="M2299 4610 c-7 -35 -4 -48 7 -38 3 4 4 21 2 40 l-3 33 -6 -35z"/>
<path d="M1550 4516 c0 -9 7 -16 16 -16 9 0 14 5 12 12 -6 18 -28 21 -28 4z"/>
<path d="M2370 4499 c0 -5 5 -7 10 -4 6 3 10 8 10 11 0 2 -4 4 -10 4 -5 0 -10
-5 -10 -11z"/>
<path d="M2330 4429 c0 -5 5 -7 10 -4 6 3 10 8 10 11 0 2 -4 4 -10 4 -5 0 -10
-5 -10 -11z"/>
<path d="M2920 4324 c0 -8 5 -12 10 -9 6 3 10 10 10 16 0 5 -4 9 -10 9 -5 0
-10 -7 -10 -16z"/>
<path d="M2210 4304 c0 -8 5 -12 10 -9 6 3 10 10 10 16 0 5 -4 9 -10 9 -5 0
-10 -7 -10 -16z"/>
<path d="M2810 4200 c19 -13 30 -13 30 0 0 6 -10 10 -22 10 -19 0 -20 -2 -8
-10z"/>
<path d="M1630 4110 c0 -5 5 -10 10 -10 6 0 10 5 10 10 0 6 -4 10 -10 10 -5 0
-10 -4 -10 -10z"/>
<path d="M1852 4039 c1 -12 8 -24 15 -26 7 -3 9 3 6 17 -8 29 -25 37 -21 9z"/>
<path d="M2624 3990 c-46 -17 -60 -67 -30 -103 31 -37 56 -41 90 -14 60 48 11
143 -60 117z"/>
<path d="M3913 3964 c-8 -21 13 -42 28 -27 13 13 5 43 -11 43 -6 0 -13 -7 -17
-16z"/>
<path d="M2184 3895 c-3 -8 -3 -19 1 -25 11 -18 25 -11 25 15 0 27 -17 34 -26
10z"/>
<path d="M1855 3890 c4 -6 11 -8 16 -5 14 9 11 15 -7 15 -8 0 -12 -5 -9 -10z"/>
<path d="M2291 3771 c-21 -13 -6 -61 19 -61 26 0 48 49 28 62 -17 10 -30 10
-47 -1z"/>
<path d="M2435 3754 c-16 -25 -15 -54 4 -54 8 0 31 52 31 71 0 17 -18 8 -35
-17z"/>
<path d="M2255 3720 c3 -5 8 -10 11 -10 2 0 4 5 4 10 0 6 -5 10 -11 10 -5 0
-7 -4 -4 -10z"/>
<path d="M2855 3721 c-9 -16 17 -61 37 -61 20 0 23 21 8 51 -11 20 -35 25 -45
10z"/>
<path d="M1982 3700 c-15 -24 -15 -33 -2 -25 6 3 10 -2 11 -12 1 -13 3 -11 9
7 16 51 6 68 -18 30z"/>
<path d="M2648 3675 c-28 -42 -37 -71 -19 -61 11 7 55 96 50 100 -2 2 -16 -15
-31 -39z"/>
<path d="M2986 3698 c-37 -52 -8 -118 50 -118 43 0 63 19 70 62 4 25 0 39 -16
56 -28 30 -83 30 -104 0z"/>
<path d="M2200 3685 c0 -8 5 -15 10 -15 6 0 10 7 10 15 0 8 -4 15 -10 15 -5 0
-10 -7 -10 -15z"/>
<path d="M2377 3636 c-8 -20 20 -43 35 -28 14 14 3 42 -16 42 -7 0 -16 -6 -19
-14z"/>
<path d="M1978 3622 c-4 -16 -13 -22 -25 -21 -10 2 -24 0 -31 -5 -8 -4 -22 -2
-35 7 -19 12 -26 12 -56 0 -28 -12 -39 -13 -55 -3 -15 9 -20 9 -27 -2 -5 -7
-9 -16 -9 -20 0 -5 -9 -8 -21 -8 -15 0 -19 -5 -15 -15 3 -8 -1 -21 -9 -29 -8
-8 -15 -25 -15 -38 0 -13 -5 -29 -11 -35 -12 -12 -15 -103 -5 -149 6 -27 4
-31 -29 -43 -23 -8 -40 -22 -47 -39 -5 -15 -14 -34 -18 -42 -5 -12 2 -20 29
-33 32 -16 39 -27 60 -90 27 -83 36 -97 62 -97 28 0 23 -13 -11 -32 -21 -12
-28 -22 -23 -34 4 -12 3 -15 -5 -10 -7 4 -12 3 -12 -3 0 -5 5 -13 10 -16 6 -3
10 -2 10 3 0 19 31 22 37 4 10 -25 29 -42 50 -42 15 0 16 -2 3 -10 -9 -6 -18
-6 -24 0 -14 14 -26 12 -26 -4 0 -10 9 -13 30 -11 34 4 37 0 16 -21 -10 -10
-17 -11 -22 -3 -5 8 -8 8 -14 0 -9 -15 -56 -24 -82 -15 -15 4 -18 12 -14 30 4
14 2 24 -4 24 -5 0 -10 17 -10 38 0 28 -8 46 -35 75 -18 20 -43 37 -53 37 -11
0 -25 7 -32 15 -29 34 -69 56 -94 49 -26 -6 -40 -38 -27 -62 6 -10 0 -27 -15
-50 -13 -19 -24 -43 -24 -53 0 -10 -7 -24 -15 -32 -13 -13 -13 -16 0 -21 8 -3
15 -15 15 -26 0 -11 9 -29 20 -40 24 -24 25 -43 5 -74 -12 -17 -22 -22 -38
-18 -19 5 -20 4 -8 -11 11 -14 10 -23 -9 -62 -20 -41 -21 -50 -10 -97 7 -29
23 -61 36 -73 17 -15 24 -33 24 -57 0 -34 -23 -68 -37 -54 -3 3 -1 6 7 6 10 0
10 3 0 15 -12 15 -52 16 -66 2 -4 -4 -18 -7 -31 -7 -13 0 -23 -6 -23 -14 0 -9
-21 -16 -62 -22 -61 -9 -83 -25 -43 -32 11 -2 43 -26 71 -53 43 -43 57 -50 95
-53 24 -1 52 -6 61 -10 9 -4 27 -6 40 -4 30 4 38 46 12 65 -22 16 -30 95 -9
87 7 -3 17 -16 23 -30 7 -14 20 -24 32 -24 22 0 26 -20 8 -38 -9 -9 -8 -12 6
-12 14 0 16 -3 8 -12 -10 -13 -15 -40 -13 -65 0 -7 19 -22 41 -33 22 -11 40
-26 41 -33 5 -58 -19 -100 -45 -78 -17 14 -58 11 -63 -4 -2 -6 3 -20 11 -30
14 -19 16 -19 46 -2 18 9 44 16 58 16 17 -1 21 -3 10 -6 -10 -2 -18 -9 -18
-14 0 -6 4 -8 9 -5 4 3 23 -6 41 -19 19 -14 40 -25 47 -25 7 0 13 -4 13 -10 0
-5 16 -10 34 -10 34 0 86 35 86 57 0 18 45 49 68 47 16 -1 22 4 22 20 0 17 2
18 10 6 5 -8 5 -19 0 -24 -5 -5 3 -19 18 -33 18 -17 21 -23 10 -19 -22 7 -23
-4 -3 -30 15 -19 15 -19 8 1 -6 18 -5 19 11 5 16 -13 20 -12 32 5 8 10 14 13
14 6 0 -20 -20 -52 -29 -46 -5 2 -12 -5 -16 -18 -6 -17 -8 -19 -12 -6 -2 10
-13 19 -23 22 -18 5 -18 3 -4 -18 14 -22 14 -24 -5 -35 -24 -12 -28 -40 -6
-40 8 0 15 6 15 14 0 13 27 31 43 28 4 -1 6 4 5 10 -2 8 7 13 20 12 14 0 21 4
18 11 -2 6 3 12 11 12 9 0 18 -9 21 -19 4 -15 7 -16 20 -6 13 12 14 11 2 -8
-20 -32 -7 -56 27 -48 23 5 26 4 16 -7 -30 -32 3 -32 40 -1 26 22 40 4 27 -34
-11 -32 -35 -41 -45 -17 -3 9 -12 12 -25 8 -18 -6 -24 1 -22 25 1 9 -67 4 -75
-5 -5 -4 -2 -5 5 -1 15 9 15 1 2 -25 -9 -16 -7 -19 8 -19 12 0 30 -18 48 -45
22 -36 34 -45 56 -45 26 0 55 30 41 44 -3 3 -2 6 4 6 6 0 14 17 18 38 9 49 23
66 41 51 10 -8 14 -8 14 0 0 16 17 13 24 -5 3 -8 2 -12 -4 -9 -6 3 -10 2 -10
-4 0 -5 5 -11 11 -13 22 -7 -6 -43 -35 -45 -35 -3 -53 -17 -35 -28 8 -6 10 -4
4 5 -6 10 -4 12 8 7 9 -3 18 -1 20 6 3 9 8 9 18 -1 10 -9 10 -15 3 -20 -6 -4
-14 -19 -17 -33 -5 -21 -13 -26 -38 -27 -44 -1 -59 -18 -59 -68 0 -41 2 -44
33 -52 17 -5 41 -6 52 -2 26 9 48 55 41 86 -7 27 -5 40 7 36 4 -1 6 1 5 5 -4
14 13 53 23 53 5 0 9 -4 9 -10 0 -5 -6 -10 -12 -10 -9 0 -8 -3 2 -9 18 -12 31
-5 23 14 -3 9 1 15 8 16 8 0 5 5 -6 10 l-20 9 20 -3 c14 -2 19 -9 17 -22 -2
-11 -4 -26 -4 -32 -1 -7 -4 -13 -8 -13 -3 0 -6 -16 -7 -36 -1 -20 -6 -40 -13
-44 -7 -4 -10 -29 -8 -66 l3 -59 21 42 c12 23 18 43 14 45 -4 2 -3 31 2 65 8
46 14 60 24 56 12 -4 12 0 4 22 -14 36 -13 42 6 49 11 4 15 2 11 -8 -3 -8 0
-17 7 -19 10 -4 12 -19 9 -51 -4 -28 -2 -46 5 -46 14 0 21 36 15 78 -4 30 -3
35 7 25 10 -9 17 -9 31 0 14 9 21 9 31 -1 9 -9 8 -12 -5 -12 -9 0 -21 -9 -27
-21 -10 -19 -10 -20 9 -10 27 15 41 14 41 -4 0 -8 5 -15 10 -15 6 0 10 11 10
24 0 13 6 26 13 29 12 4 57 -37 57 -53 0 -5 8 -14 19 -19 20 -11 36 -51 20
-51 -5 0 -9 -5 -9 -11 0 -6 7 -8 16 -5 15 6 14 3 -1 -21 -10 -16 -30 -39 -44
-53 -32 -30 -37 -77 -10 -85 25 -8 58 28 64 70 5 43 34 84 58 85 10 0 22 11
27 24 5 13 13 27 18 30 11 6 70 -20 90 -41 8 -7 22 -18 33 -24 11 -5 17 -14
14 -20 -4 -5 1 -9 9 -9 8 0 21 -10 27 -22 7 -13 23 -36 35 -51 17 -20 24 -41
24 -71 0 -38 -3 -42 -22 -42 -29 1 -30 -26 -2 -38 18 -8 20 -16 16 -62 -4 -44
-1 -55 12 -60 27 -10 40 12 37 60 -1 25 3 47 10 52 12 7 14 5 52 -60 27 -46
48 -62 71 -53 24 10 20 32 -19 87 -19 27 -35 53 -35 57 0 5 -17 27 -39 50 -41
45 -42 51 -19 140 5 23 17 44 26 48 20 7 62 -32 63 -59 0 -21 1 -21 8 -1 7 18
9 17 25 -12 22 -44 66 -69 66 -37 0 9 5 12 12 8 7 -4 1 7 -11 25 -13 18 -30
35 -38 38 -20 8 -43 57 -34 72 7 10 13 10 32 -1 47 -26 58 -41 65 -84 7 -47
34 -80 59 -71 18 8 20 38 3 55 -9 9 -9 12 -1 12 24 0 96 -104 98 -140 0 -8 8
-14 18 -14 9 1 32 -16 51 -37 21 -25 41 -39 56 -39 25 0 80 -45 80 -66 0 -6 9
-23 21 -38 23 -29 59 -35 59 -10 0 27 -224 276 -244 272 -16 -4 -136 121 -136
141 0 10 -6 26 -14 36 -18 25 -3 68 30 90 24 16 25 15 39 -20 18 -43 45 -47
45 -7 0 15 -5 33 -12 40 -6 6 -8 15 -3 19 4 5 10 2 12 -5 7 -20 33 -42 49 -42
8 0 19 11 24 25 5 14 14 26 20 26 5 1 13 2 18 4 4 1 20 5 36 10 23 6 32 4 42
-9 17 -24 47 -16 54 14 5 22 7 23 13 6 10 -25 33 -6 41 34 3 18 12 30 21 30
14 0 14 3 -1 25 -8 13 -12 30 -8 37 4 7 4 10 -1 6 -4 -4 -14 -3 -21 3 -21 17
3 47 32 41 13 -2 24 -7 25 -11 0 -3 2 -19 3 -35 1 -16 8 -32 15 -34 9 -3 8 -9
-5 -23 -14 -15 -14 -21 -4 -34 16 -19 36 -19 44 0 3 8 13 15 23 15 13 0 19 8
20 28 1 15 5 42 8 60 5 20 3 38 -4 46 -9 11 -9 15 0 18 15 5 13 109 -2 118 -6
4 -4 11 5 19 8 7 13 18 10 24 -2 7 12 21 31 31 29 16 40 17 60 8 15 -7 25 -8
25 -2 0 6 20 10 44 10 47 0 136 32 136 50 0 6 -6 19 -12 30 -11 17 -10 22 9
35 13 9 20 22 17 30 -4 10 0 15 11 15 10 0 13 5 9 12 -4 6 1 17 10 23 15 11
14 13 -9 19 -14 4 -31 4 -36 0 -6 -3 -17 2 -24 12 -19 25 -18 34 3 35 9 0 1 6
-18 12 -26 9 -34 17 -32 32 5 28 15 36 52 44 18 3 40 17 49 30 15 24 15 24
-13 17 -37 -9 -69 1 -62 21 7 18 -20 73 -37 74 -6 1 -19 2 -27 3 -8 0 -13 8
-11 16 2 8 3 30 2 48 -1 23 4 34 16 39 29 11 53 36 53 56 0 24 -31 19 -45 -8
-20 -40 -50 -73 -72 -80 -13 -3 -23 -3 -23 2 0 4 -4 14 -9 22 -8 12 -12 12
-25 2 -10 -8 -16 -9 -16 -3 0 6 5 14 10 17 6 4 8 11 5 16 -4 5 1 9 10 9 9 0
14 -4 11 -8 -3 -5 1 -9 8 -9 11 0 12 4 3 18 -6 10 -15 15 -19 13 -4 -3 -8 -2
-9 3 -1 8 -4 28 -10 53 -8 32 -36 42 -74 26 -35 -15 -36 -15 -45 9 -5 14 -12
25 -15 25 -10 0 -30 -23 -37 -41 -7 -17 -52 -30 -75 -22 -18 7 -16 30 3 37 8
3 12 10 9 16 -4 6 -11 8 -16 4 -5 -3 -17 0 -26 8 -9 7 -14 9 -11 3 3 -5 -4
-18 -17 -27 -22 -17 -23 -17 -30 15 -4 18 -7 36 -6 40 1 5 -3 6 -8 3 -5 -4
-11 1 -13 10 -3 15 -4 15 -18 -1 -9 -11 -10 -16 -2 -11 6 4 12 2 12 -3 0 -23
-22 -10 -33 19 -12 33 -32 42 -24 11 3 -13 -3 -22 -19 -30 -24 -11 -32 -3 -15
15 17 17 70 174 60 179 -5 4 -9 2 -9 -3 0 -6 -7 -12 -15 -16 -13 -5 -14 -2 -4
17 22 40 53 77 64 77 7 0 24 23 39 50 15 28 23 50 17 50 -6 0 -15 -10 -22 -21
-9 -18 -13 -19 -21 -8 -8 11 -9 10 -4 -3 3 -10 1 -20 -5 -24 -5 -3 -21 -23
-34 -44 -33 -52 -130 -150 -148 -150 -27 0 -28 33 -3 102 13 37 21 70 18 73
-10 10 -22 5 -22 -10 0 -8 -5 -15 -11 -15 -5 0 -7 -4 -4 -10 3 -5 0 -20 -7
-32 -6 -13 -11 -31 -9 -41 2 -14 -3 -18 -16 -15 -11 2 -17 11 -15 23 7 44 7
54 -3 57 -5 2 -11 -7 -13 -19 -2 -13 -7 -23 -12 -23 -17 0 -40 32 -40 54 0 33
-26 51 -79 53 -74 4 -96 8 -120 25 -27 19 -51 13 -51 -12 0 -17 22 -33 47 -35
15 0 53 -44 53 -61 0 -27 82 -51 108 -31 7 5 15 7 19 4 3 -4 12 -2 19 4 11 9
15 7 21 -6 9 -24 -25 -49 -44 -33 -10 8 -17 8 -25 0 -13 -13 -78 11 -91 33
-13 23 -27 18 -27 -10 0 -28 -14 -32 -36 -10 -20 20 -31 19 -38 -2 -6 -20 -54
-46 -67 -37 -5 2 -8 20 -7 39 1 36 -18 69 -34 59 -5 -3 -16 2 -25 12 -14 17
-14 16 0 -7 14 -24 14 -28 -1 -43 -14 -13 -14 -16 -2 -17 8 -1 18 -1 21 -1 4
1 2 -9 -4 -23 -7 -13 -15 -21 -19 -19 -5 3 -8 0 -8 -5 0 -6 5 -11 11 -11 7 0
0 -9 -15 -21 -14 -11 -32 -18 -39 -16 -9 4 -9 6 1 6 6 1 11 11 11 24 -1 16 -2
18 -6 5 -2 -10 -13 -18 -23 -18 -10 0 -21 -6 -23 -12 -4 -10 -6 -10 -6 0 -1 8
7 16 17 19 14 3 19 15 21 46 4 96 7 115 24 131 21 22 21 20 -5 48 -28 28 -46
29 -81 1 -28 -22 -35 -47 -16 -59 7 -4 8 -9 1 -13 -16 -10 -17 -33 -4 -71 13
-41 12 -54 -12 -99 -12 -23 -21 -30 -28 -23 -6 6 -17 8 -24 5 -8 -3 -14 0 -14
6 0 6 -4 11 -10 11 -5 0 -7 -8 -3 -17 6 -17 5 -17 -14 0 -28 24 -33 21 -22
-15 5 -21 5 -36 -1 -42 -16 -16 -11 -30 5 -16 9 7 18 10 22 6 3 -3 1 -6 -6 -6
-8 0 -11 -8 -8 -20 6 -23 3 -24 -22 -9 -15 10 -17 18 -9 57 6 34 5 48 -4 54
-10 6 -10 8 0 8 6 0 12 7 12 16 0 8 -4 13 -9 10 -5 -3 -12 1 -15 10 -9 24 -7
31 4 14 6 -9 10 -10 10 -3 0 6 -5 15 -11 18 -6 4 -7 19 -4 36 4 19 3 29 -5 29
-7 0 -10 -6 -7 -14 3 -8 0 -19 -7 -26 -10 -8 -15 -6 -20 6 -7 18 20 55 38 53
42 -5 66 2 66 20 0 20 -18 31 -50 31 -20 0 -36 33 -25 51 4 6 17 14 29 19 13
6 0 7 -38 3 -57 -6 -59 -5 -54 15 4 12 2 25 -3 28 -5 3 -9 -2 -9 -10 0 -9 -7
-16 -15 -16 -8 0 -15 -7 -15 -15 0 -8 -4 -15 -10 -15 -5 0 -10 5 -10 10 0 6
-9 10 -20 10 -18 0 -25 -10 -21 -32 2 -13 -10 -9 -36 12 -14 11 -21 20 -14 20
6 0 11 5 11 11 0 5 -4 8 -9 4 -5 -3 -12 -1 -16 5 -8 13 6 13 41 0 32 -12 85
-4 81 13 -1 6 14 14 33 17 27 5 31 8 18 14 -9 4 -21 5 -25 3 -15 -9 -36 10
-30 27 5 11 18 15 47 14 23 -1 43 -5 46 -10 3 -4 14 -8 24 -8 27 0 36 37 14
61 -23 25 -32 24 -40 -7 -6 -22 -11 -25 -43 -22 -34 3 -36 5 -45 51 -9 49 -13
52 -68 48 -16 -1 -43 9 -65 24 -30 20 -38 32 -38 57 0 19 -6 33 -15 35 -11 3
-12 2 -2 -4 12 -9 -1 -28 -35 -47 -20 -11 -64 15 -58 34 4 14 1 16 -21 12 -21
-4 -25 -1 -23 14 2 11 0 20 -5 21 -5 1 -13 7 -17 15 -6 9 -9 5 -9 -13 0 -49
-55 -45 -62 4 -3 22 -3 22 -10 -1z m-142 -447 c4 -8 12 -15 19 -15 17 0 75
-33 75 -42 0 -19 53 -6 75 18 24 26 85 44 85 25 0 -6 -6 -11 -12 -12 -7 0 -3
-4 9 -9 12 -5 25 -21 29 -35 7 -29 22 -29 38 1 6 10 12 21 13 23 6 10 33 -24
33 -41 0 -15 -5 -18 -21 -13 -19 6 -21 4 -16 -21 7 -39 0 -52 -28 -46 -16 3
-22 9 -18 19 4 11 0 13 -23 7 -30 -8 -58 -35 -45 -44 5 -3 11 -12 14 -20 3 -9
6 -3 6 14 1 23 4 27 19 21 9 -4 25 -9 34 -12 18 -5 31 -32 26 -54 -2 -8 3 -13
10 -11 6 1 12 -2 12 -7 0 -5 3 -18 7 -28 6 -16 5 -16 -10 -4 -15 12 -21 9 -18
-11 2 -14 -11 -8 -24 9 -9 12 -10 23 -4 35 8 15 6 18 -11 18 -12 0 -20 7 -20
16 0 14 3 14 15 4 13 -11 14 -10 9 4 -8 22 -25 20 -31 -4 -3 -11 -8 -20 -12
-21 -3 0 -17 -3 -31 -5 -20 -3 -29 2 -43 26 -18 30 -40 39 -52 20 -4 -6 -1
-18 7 -27 11 -14 10 -15 -10 -9 -14 5 -29 3 -39 -6 -12 -9 -15 -9 -9 0 4 6 2
12 -3 12 -6 0 -11 5 -11 11 0 5 4 8 9 5 5 -3 14 0 20 8 9 11 8 14 -6 12 -23
-1 -43 -18 -36 -30 5 -7 -36 1 -46 10 -2 2 9 15 25 29 18 15 31 20 35 14 4 -8
9 -8 13 -1 7 11 3 15 -27 25 -13 5 -17 3 -14 -5 4 -15 -21 -37 -42 -38 -8 0
-11 7 -8 20 3 10 0 21 -5 22 -8 3 -7 11 0 25 10 17 6 26 -28 59 -22 22 -40 44
-40 51 0 11 10 13 78 20 13 2 25 -4 28 -12z m464 -27 c-1 -26 -24 -61 -33 -51
-12 11 -7 61 6 66 23 10 27 7 27 -15z m-53 -30 c-3 -7 -5 -2 -5 12 0 14 2 19
5 13 2 -7 2 -19 0 -25z m-115 0 c-7 -7 -12 -8 -12 -2 0 14 12 26 19 19 2 -3
-1 -11 -7 -17z m335 -53 c0 -8 -4 -15 -9 -15 -10 0 -11 14 -1 23 9 10 10 9 10
-8z m964 -56 c-5 -13 -10 -19 -10 -12 -1 15 10 45 15 40 3 -2 0 -15 -5 -28z
m-715 -73 c10 -8 16 -18 11 -22 -4 -4 -14 1 -22 12 -13 17 -14 17 -15 2 0 -10
-5 -18 -11 -18 -5 0 -7 -4 -4 -10 9 -15 -1 -12 -14 4 -9 11 -8 18 4 30 20 20
26 20 51 2z m-646 -49 c0 -4 -7 -2 -15 7 -8 8 -15 21 -15 28 1 14 30 -20 30
-35z m-149 -10 c-7 -7 -14 -8 -21 -1 -6 6 -8 18 -4 27 5 15 7 15 21 1 12 -11
13 -18 4 -27z m609 39 c0 -3 -4 -8 -10 -11 -5 -3 -10 -1 -10 4 0 6 5 11 10 11
6 0 10 -2 10 -4z m-567 -24 c-1 -6 7 -7 19 -4 19 5 20 4 8 -10 -18 -19 -36
-13 -43 13 -4 13 -1 19 6 16 7 -3 11 -9 10 -15z m137 -22 c0 -5 -2 -10 -4 -10
-3 0 -8 5 -11 10 -3 6 -1 10 4 10 6 0 11 -4 11 -10z m600 -11 c0 -11 -4 -17
-10 -14 -5 3 -10 13 -10 21 0 8 5 14 10 14 6 0 10 -9 10 -21z m-667 -3 c7 4 4
-1 -5 -11 -20 -22 -34 -14 -23 12 5 12 9 14 12 5 3 -6 10 -9 16 -6z m-46 -43
c-3 -10 -5 -4 -5 12 0 17 2 24 5 18 2 -7 2 -21 0 -30z m1533 13 c0 -8 -4 -17
-8 -20 -4 -2 -8 4 -8 15 0 10 4 19 8 19 4 0 8 -6 8 -14z m-860 -16 c0 -17 -3
-19 -19 -11 -10 6 -22 7 -27 3 -5 -4 -2 1 5 11 18 23 41 22 41 -3z m785 -49
c-14 -13 -16 -13 -11 -1 3 8 9 24 13 35 7 19 7 19 11 1 2 -10 -4 -26 -13 -35z
m45 -6 c0 -5 -5 -3 -10 5 -5 8 -10 20 -10 25 0 6 5 3 10 -5 5 -8 10 -19 10
-25z m369 -16 c-13 -26 -15 -24 -15 17 0 31 2 34 13 18 8 -12 9 -22 2 -35z
m-224 11 c-3 -5 -11 -10 -16 -10 -6 0 -7 5 -4 10 3 6 11 10 16 10 6 0 7 -4 4
-10z m-1940 -10 c3 -5 -1 -10 -10 -10 -9 0 -13 5 -10 10 3 6 8 10 10 10 2 0 7
-4 10 -10z m1889 -19 c7 -11 -14 -20 -32 -13 -11 4 -11 6 0 13 17 11 26 11 32
0z m192 -7 c-3 -8 -2 -13 2 -10 4 2 12 -7 19 -20 10 -22 9 -24 -11 -24 -35 0
-53 -21 -72 -85 -21 -71 -19 -92 8 -122 20 -21 20 -24 4 -57 -9 -19 -16 -39
-16 -46 0 -7 -11 -5 -30 7 -32 18 -38 41 -18 61 9 9 9 12 1 12 -7 0 -15 -9
-18 -21 -4 -12 -12 -18 -21 -15 -7 3 -13 0 -11 -5 3 -18 -44 -21 -69 -4 -13 8
-27 15 -31 15 -4 0 -1 -5 8 -10 13 -8 16 -27 10 -60 -1 -3 -5 0 -9 7 -5 8 -12
9 -22 2 -13 -8 -13 -10 0 -19 12 -8 12 -10 1 -10 -19 0 -40 30 -41 58 0 12 -7
25 -15 28 -8 4 -15 10 -15 16 0 5 5 6 12 2 8 -5 9 -2 4 12 -5 10 -11 28 -14
39 -5 18 -3 18 11 6 14 -11 18 -11 24 4 4 11 0 22 -10 30 -22 16 -22 29 1 20
14 -5 15 -4 4 7 -9 9 -17 10 -30 1 -15 -9 -18 -7 -19 8 -2 24 -26 49 -47 49
-9 0 -16 8 -16 19 0 21 31 36 68 32 12 -1 37 5 55 14 69 35 183 53 216 36 13
-8 21 -8 21 -2 0 7 8 7 23 2 18 -7 24 -6 24 5 0 8 -4 14 -9 14 -4 0 -8 5 -8
10 0 6 9 10 21 10 15 0 19 -5 15 -16z m-246 -4 c0 -5 -2 -10 -4 -10 -3 0 -8 5
-11 10 -3 6 -1 10 4 10 6 0 11 -4 11 -10z m410 -88 c0 -13 -12 -22 -22 -16
-10 6 -1 24 13 24 5 0 9 -4 9 -8z m23 -58 c-7 -18 -27 -13 -31 9 -2 11 2 14
17 10 12 -3 17 -11 14 -19z m-2208 -124 c3 -5 -1 -10 -10 -10 -9 0 -13 5 -10
10 3 6 8 10 10 10 2 0 7 -4 10 -10z m-455 -130 c0 -5 -5 -10 -11 -10 -5 0 -7
5 -4 10 3 6 8 10 11 10 2 0 4 -4 4 -10z m597 3 c-4 -3 -1 -13 6 -22 11 -14 10
-14 -5 -2 -21 15 -23 31 -6 31 6 0 8 -3 5 -7z m-127 -112 c0 -10 -4 -11 -13
-3 -15 13 -38 -2 -57 -38 -12 -22 -12 -24 2 -12 18 15 44 7 53 -16 10 -28 -19
-41 -65 -29 -30 8 -36 13 -25 20 8 4 15 14 15 21 0 7 9 25 20 38 10 14 17 28
14 31 -3 3 -3 10 0 15 8 14 56 -9 56 -27z m-144 -75 c15 -16 18 -26 6 -26 -4
0 -13 9 -20 20 -14 23 -7 26 14 6z m2194 -9 c14 4 19 0 17 -15 -1 -15 -7 -19
-26 -15 -37 6 -43 13 -29 30 7 8 14 11 16 5 1 -5 11 -8 22 -5z m-286 -62 c3
-8 1 -15 -4 -15 -6 0 -10 7 -10 15 0 8 2 15 4 15 2 0 6 -7 10 -15z m196 -15
c0 -5 -7 -10 -16 -10 -8 0 -12 5 -9 10 3 6 10 10 16 10 5 0 9 -4 9 -10z
m-1910 -10 c0 -5 -2 -10 -4 -10 -3 0 -8 5 -11 10 -3 6 -1 10 4 10 6 0 11 -4
11 -10z m15 -30 c3 -5 -1 -10 -9 -10 -9 0 -16 5 -16 10 0 6 4 10 9 10 6 0 13
-4 16 -10z m50 0 c3 -5 1 -10 -4 -10 -6 0 -11 5 -11 10 0 6 2 10 4 10 3 0 8
-4 11 -10z m1679 -16 c3 -8 11 -12 17 -8 7 4 10 3 7 -2 -8 -13 15 -31 35 -28
14 2 16 -5 12 -39 -2 -23 -4 -48 -4 -54 -1 -7 -8 -13 -16 -13 -20 0 -19 10 1
25 14 10 12 13 -17 25 -45 18 -45 17 -23 42 17 19 17 21 2 15 -17 -6 -38 17
-38 42 0 17 17 13 24 -5z"/>
<path d="M1836 3118 c-12 -16 -13 -25 -4 -35 14 -18 19 -11 22 26 3 37 2 37
-18 9z"/>
<path d="M2050 3120 c0 -5 5 -10 11 -10 5 0 7 5 4 10 -3 6 -8 10 -11 10 -2 0
-4 -4 -4 -10z"/>
<path d="M1936 3011 c-4 -7 -5 -15 -2 -18 9 -9 19 4 14 18 -4 11 -6 11 -12 0z"/>
<path d="M2015 2980 c3 -5 8 -10 11 -10 2 0 4 5 4 10 0 6 -5 10 -11 10 -5 0
-7 -4 -4 -10z"/>
<path d="M3475 2610 c3 -5 11 -10 16 -10 6 0 7 5 4 10 -3 6 -11 10 -16 10 -6
0 -7 -4 -4 -10z"/>
<path d="M3652 2589 c2 -6 8 -10 13 -10 5 0 11 4 13 10 2 6 -4 11 -13 11 -9 0
-15 -5 -13 -11z"/>
<path d="M3651 2540 c-14 -8 -7 -30 9 -30 11 0 21 28 12 34 -5 3 -14 1 -21 -4z"/>
<path d="M3590 2525 c0 -8 -5 -15 -11 -15 -5 0 -7 5 -4 10 3 6 2 10 -4 10 -5
0 -12 -4 -15 -9 -7 -11 22 -23 35 -15 5 3 9 1 9 -5 0 -6 7 -8 15 -5 8 4 15 11
15 16 0 6 -7 7 -16 4 -12 -4 -15 -2 -10 9 3 8 1 15 -4 15 -6 0 -10 -7 -10 -15z"/>
<path d="M3605 2469 c-4 -6 -4 -13 -1 -16 3 -4 6 -1 6 6 0 7 6 11 13 8 8 -3
20 -1 28 4 10 6 7 9 -13 9 -15 0 -30 -5 -33 -11z"/>
<path d="M3476 2364 c-4 -9 -4 -19 -1 -22 3 -3 5 0 5 7 0 7 5 9 10 6 6 -3 10
-2 10 4 0 18 -18 21 -24 5z"/>
<path d="M1520 3620 c0 -5 5 -10 10 -10 6 0 10 5 10 10 0 6 -4 10 -10 10 -5 0
-10 -4 -10 -10z"/>
<path d="M2428 3569 c-21 -12 -24 -49 -6 -67 18 -18 53 -14 73 8 17 18 17 21
1 45 -17 26 -40 31 -68 14z"/>
<path d="M1235 3524 c-17 -12 -20 -26 -20 -89 1 -40 -3 -71 -7 -69 -16 10 -90
-60 -108 -100 -9 -23 -25 -47 -34 -55 -22 -19 -20 -30 8 -41 15 -5 27 -20 30
-38 7 -31 48 -80 87 -104 31 -20 106 -31 114 -18 3 5 15 10 26 10 30 0 88 59
103 105 8 22 12 57 10 79 -4 46 -25 106 -36 106 -5 0 -18 11 -29 25 -19 21
-71 42 -91 37 -5 -1 -8 5 -8 13 0 8 8 15 18 15 26 0 62 42 62 71 0 42 -27 69
-68 69 -20 0 -46 -7 -57 -16z"/>
<path d="M2933 3504 c-7 -18 14 -35 34 -27 7 3 13 14 13 24 0 24 -38 26 -47 3z"/>
<path d="M3110 3500 c-18 -14 -24 -26 -22 -47 6 -42 27 -60 64 -55 61 9 77 54
33 97 -29 30 -42 31 -75 5z"/>
<path d="M3630 3457 c0 -7 -9 -18 -21 -25 -13 -9 -18 -19 -14 -30 3 -9 3 -13
-1 -9 -4 4 -13 -6 -21 -20 -10 -19 -11 -29 -3 -31 7 -3 7 -9 -2 -20 -11 -15
-11 -15 7 0 14 12 25 14 37 7 19 -10 22 -6 32 34 4 18 3 26 -3 23 -5 -4 -12
-2 -16 4 -6 9 8 15 29 11 5 -1 6 5 2 14 -3 9 -6 25 -6 36 0 10 -4 19 -10 19
-5 0 -10 -6 -10 -13z m0 -97 c0 -5 -5 -10 -11 -10 -5 0 -7 5 -4 10 3 6 8 10
11 10 2 0 4 -4 4 -10z"/>
<path d="M982 3428 c2 -17 11 -24 31 -26 25 -3 28 0 25 20 -2 17 -11 24 -31
26 -25 3 -28 0 -25 -20z"/>
<path d="M2593 3404 c-18 -8 -16 -39 3 -55 21 -17 49 0 49 32 0 24 -24 34 -52
23z"/>
<path d="M3310 3400 c0 -5 5 -10 11 -10 5 0 7 5 4 10 -3 6 -8 10 -11 10 -2 0
-4 -4 -4 -10z"/>
<path d="M2662 3383 c4 -24 25 -27 37 -6 8 16 5 19 -16 21 -18 1 -24 -2 -21
-15z"/>
<path d="M3780 3376 c0 -13 5 -28 10 -31 6 -3 10 3 10 14 0 12 0 24 1 28 0 4
-4 9 -10 11 -6 2 -11 -8 -11 -22z"/>
<path d="M2782 3380 c1 -3 -4 -18 -11 -34 -9 -24 -9 -33 4 -53 13 -19 23 -23
55 -21 21 2 37 5 35 7 -2 1 1 15 6 29 15 40 -5 69 -51 74 -21 2 -38 1 -38 -2z"/>
<path d="M901 3341 c-8 -15 -7 -23 5 -35 21 -22 56 -3 52 27 -4 30 -43 35 -57
8z"/>
<path d="M2940 3340 c0 -5 -9 -10 -19 -10 -14 0 -18 -5 -14 -20 3 -11 11 -20
18 -20 7 0 12 -8 10 -17 -3 -19 12 -43 26 -43 5 0 9 6 9 14 0 8 10 16 22 18
32 4 35 36 5 47 -13 5 -27 17 -30 25 -7 18 -27 22 -27 6z"/>
<path d="M2495 3320 c4 -6 11 -8 16 -5 14 9 11 15 -7 15 -8 0 -12 -5 -9 -10z"/>
<path d="M2495 3290 c3 -5 20 -10 36 -10 18 0 28 4 24 10 -3 6 -20 10 -36 10
-18 0 -28 -4 -24 -10z"/>
<path d="M780 3271 c0 -5 7 -11 15 -15 9 -3 15 0 15 9 0 8 -7 15 -15 15 -8 0
-15 -4 -15 -9z"/>
<path d="M887 3243 c-14 -13 -7 -33 11 -33 26 0 34 11 21 27 -13 14 -22 16
-32 6z"/>
<path d="M2525 3201 c-3 -5 -1 -12 5 -16 5 -3 10 1 10 9 0 18 -6 21 -15 7z"/>
<path d="M2615 3169 c-10 -15 3 -25 16 -12 7 7 7 13 1 17 -6 3 -14 1 -17 -5z"/>
<path d="M2991 3126 c-9 -11 -8 -18 5 -31 15 -15 18 -15 32 -1 13 12 13 18 2
30 -15 20 -24 20 -39 2z"/>
<path d="M1025 3120 c-3 -6 1 -13 10 -16 19 -8 30 0 20 15 -8 14 -22 14 -30 1z"/>
<path d="M2570 3066 c0 -21 17 -29 37 -17 17 10 17 10 1 11 -10 0 -18 5 -18
10 0 6 -4 10 -10 10 -5 0 -10 -6 -10 -14z"/>
<path d="M2783 3056 c0 -21 2 -23 13 -11 8 7 14 18 14 24 0 6 -6 11 -14 11 -8
0 -13 -10 -13 -24z"/>
<path d="M3670 3076 c0 -2 7 -7 16 -10 8 -3 12 -2 9 4 -6 10 -25 14 -25 6z"/>
<path d="M847 3042 c-15 -16 -15 -20 -1 -40 29 -42 89 -20 82 30 -4 31 -56 37
-81 10z"/>
<path d="M2556 3042 c-8 -13 0 -46 12 -50 8 -2 10 3 5 14 -4 12 -3 15 5 10 17
-10 15 2 -2 20 -8 8 -17 10 -20 6z"/>
<path d="M2645 3040 c3 -5 8 -10 11 -10 2 0 4 5 4 10 0 6 -5 10 -11 10 -5 0
-7 -4 -4 -10z"/>
<path d="M3695 3030 c3 -5 8 -10 11 -10 2 0 4 5 4 10 0 6 -5 10 -11 10 -5 0
-7 -4 -4 -10z"/>
<path d="M2640 3016 c0 -4 7 -14 15 -22 8 -9 15 -11 15 -6 0 5 -7 15 -15 22
-8 7 -15 9 -15 6z"/>
<path d="M3602 2991 c-8 -5 -11 -19 -7 -42 8 -46 11 -46 19 2 7 47 6 51 -12
40z"/>
<path d="M1336 2972 c-3 -6 -1 -14 5 -17 15 -10 25 3 12 16 -7 7 -13 7 -17 1z"/>
<path d="M890 2960 c0 -5 9 -10 21 -10 11 0 17 5 14 10 -3 6 -13 10 -21 10 -8
0 -14 -4 -14 -10z"/>
<path d="M936 2928 c-34 -49 -11 -88 52 -88 63 0 68 64 7 93 -44 21 -41 21
-59 -5z"/>
<path d="M1640 2941 c0 -6 5 -13 10 -16 6 -3 10 1 10 9 0 9 -4 16 -10 16 -5 0
-10 -4 -10 -9z"/>
<path d="M1128 2928 c-9 -25 4 -38 38 -38 30 0 33 2 25 23 -9 25 -55 36 -63
15z"/>
<path d="M3690 2911 c0 -6 5 -13 10 -16 6 -3 10 1 10 9 0 9 -4 16 -10 16 -5 0
-10 -4 -10 -9z"/>
<path d="M1320 2890 c0 -5 5 -10 10 -10 6 0 10 5 10 10 0 6 -4 10 -10 10 -5 0
-10 -4 -10 -10z"/>
<path d="M1145 2860 c4 -6 11 -8 16 -5 14 9 11 15 -7 15 -8 0 -12 -5 -9 -10z"/>
<path d="M3670 2820 c0 -6 7 -10 15 -10 8 0 15 2 15 4 0 2 -7 6 -15 10 -8 3
-15 1 -15 -4z"/>
<path d="M965 2630 c-4 -6 6 -10 22 -10 22 0 25 2 13 10 -19 12 -27 12 -35 0z"/>
<path d="M4204 2535 c-10 -8 -14 -14 -9 -14 6 0 19 6 29 14 11 8 15 15 10 15
-6 0 -19 -7 -30 -15z"/>
<path d="M868 2423 c6 -2 18 -2 25 0 6 3 1 5 -13 5 -14 0 -19 -2 -12 -5z"/>
<path d="M4127 2359 c8 -8 16 -8 30 0 16 9 14 10 -11 11 -22 0 -27 -3 -19 -11z"/>
<path d="M4138 2333 c6 -2 18 -2 25 0 6 3 1 5 -13 5 -14 0 -19 -2 -12 -5z"/>
<path d="M4236 2241 c-4 -5 -3 -16 0 -25 5 -14 8 -14 21 -1 8 8 11 19 8 25 -8
12 -22 13 -29 1z"/>
<path d="M1100 1979 c0 -11 5 -17 10 -14 6 3 10 13 10 21 0 8 -4 14 -10 14 -5
0 -10 -9 -10 -21z"/>
<path d="M1800 1941 c0 -6 5 -11 11 -11 7 0 10 -17 7 -45 -2 -25 0 -45 4 -45
5 0 8 12 8 28 0 21 2 24 10 12 8 -13 10 -13 10 2 0 9 -4 20 -10 23 -5 3 -10
11 -10 17 0 6 7 5 17 -3 15 -13 15 -12 3 11 -8 16 -15 20 -18 12 -3 -10 -7
-10 -18 -1 -10 8 -14 8 -14 0z"/>
<path d="M3951 1774 c-30 -8 -61 -12 -68 -10 -7 3 -13 -1 -13 -9 0 -8 9 -15
20 -15 27 0 26 -34 -1 -54 -14 -9 -18 -19 -13 -28 13 -20 34 -81 34 -100 0
-11 7 -17 18 -16 9 1 36 0 58 0 34 -2 43 -6 47 -24 6 -21 7 -21 25 -5 10 9 24
17 31 17 7 0 11 11 9 28 -2 22 1 26 16 24 17 -3 18 -2 7 12 -9 11 -10 20 -4
29 19 23 24 70 11 101 -27 66 -72 78 -177 50z"/>
<path d="M1927 1764 c6 -15 23 -19 23 -5 0 5 -7 11 -14 14 -10 4 -13 1 -9 -9z"/>
<path d="M2100 1739 c0 -5 5 -7 10 -4 6 3 10 8 10 11 0 2 -4 4 -10 4 -5 0 -10
-5 -10 -11z"/>
<path d="M1786 1725 c-6 -16 3 -19 28 -9 22 8 20 24 -3 24 -10 0 -21 -7 -25
-15z"/>
<path d="M1920 1700 c0 -5 5 -10 11 -10 5 0 7 5 4 10 -3 6 -8 10 -11 10 -2 0
-4 -4 -4 -10z"/>
<path d="M2151 1681 c-8 -5 -9 -11 -3 -15 5 -3 12 1 16 9 6 17 6 18 -13 6z"/>
<path d="M1934 1625 c-7 -18 3 -35 21 -35 18 0 26 15 19 34 -8 20 -33 21 -40
1z"/>
<path d="M3684 1565 c-23 -23 -24 -26 -9 -54 18 -36 46 -46 77 -30 48 25 52
67 9 92 -38 22 -47 22 -77 -8z"/>
<path d="M2020 1555 c-7 -8 -9 -15 -6 -15 4 0 14 7 22 15 9 8 11 15 6 15 -5 0
-15 -7 -22 -15z"/>
<path d="M1541 1534 c0 -11 3 -14 6 -6 3 7 2 16 -1 19 -3 4 -6 -2 -5 -13z"/>
<path d="M2455 1523 c-13 -31 -11 -71 3 -66 6 3 12 16 12 28 0 13 3 30 6 39 8
22 -12 20 -21 -1z"/>
<path d="M2491 1524 c0 -11 3 -14 6 -6 3 7 2 16 -1 19 -3 4 -6 -2 -5 -13z"/>
<path d="M1980 1520 c0 -5 4 -10 9 -10 6 0 13 5 16 10 3 6 -1 10 -9 10 -9 0
-16 -4 -16 -10z"/>
<path d="M3500 1510 c0 -5 5 -10 11 -10 5 0 7 5 4 10 -3 6 -8 10 -11 10 -2 0
-4 -4 -4 -10z"/>
<path d="M2510 1485 c0 -9 -7 -18 -15 -21 -27 -11 -16 -19 25 -20 32 0 37 2
29 13 -6 7 -16 10 -22 6 -6 -4 -8 2 -5 15 4 12 2 22 -3 22 -5 0 -9 -7 -9 -15z"/>
<path d="M3374 1456 c-4 -10 -2 -22 4 -28 8 -8 13 -7 18 6 4 10 2 22 -4 28 -8
8 -13 7 -18 -6z"/>
<path d="M3412 1413 c-11 -22 -5 -44 16 -60 24 -20 41 -16 54 12 9 21 8 28 -7
45 -22 25 -51 26 -63 3z"/>
<path d="M2122 1398 c6 -18 28 -21 28 -4 0 9 -7 16 -16 16 -9 0 -14 -5 -12
-12z"/>
<path d="M3808 1394 c-16 -8 -28 -19 -28 -24 0 -6 -6 -10 -14 -10 -9 0 -13
-10 -12 -25 1 -23 2 -24 14 -8 13 17 14 17 26 1 14 -20 36 -24 36 -8 0 6 9 10
20 10 24 0 38 44 20 65 -15 19 -27 18 -62 -1z"/>
<path d="M2765 1360 c-20 -39 -19 -57 4 -70 27 -14 41 -13 41 5 0 7 6 18 14
22 34 21 21 73 -19 73 -17 0 -29 -9 -40 -30z"/>
<path d="M2227 1320 c-19 -102 -32 -209 -25 -202 10 10 40 189 35 215 -2 17
-5 14 -10 -13z"/>
<path d="M3775 1270 c-3 -5 -1 -10 4 -10 6 0 11 5 11 10 0 6 -2 10 -4 10 -3 0
-8 -4 -11 -10z"/>
<path d="M2703 1205 c-32 -23 -35 -54 -8 -81 21 -21 27 -22 54 -13 26 9 31 16
31 44 0 24 -7 39 -22 49 -27 20 -29 20 -55 1z"/>
<path d="M2188 1094 c-5 -4 -8 -19 -8 -33 0 -18 3 -22 11 -14 6 6 9 21 7 33
-1 12 -6 18 -10 14z"/>
<path d="M2768 1069 c-20 -11 -25 -59 -6 -59 9 0 9 -3 0 -12 -30 -30 0 -78 37
-58 23 12 27 40 10 57 -8 8 -8 17 1 33 9 16 9 25 -1 36 -13 16 -18 17 -41 3z"/>
<path d="M2383 1063 c9 -2 23 -2 30 0 6 3 -1 5 -18 5 -16 0 -22 -2 -12 -5z"/>
<path d="M3251 931 c-33 -25 -23 -54 16 -45 42 10 59 29 43 48 -16 21 -30 20
-59 -3z"/>
<path d="M3627 924 c-10 -11 -8 -44 3 -44 5 0 6 -8 3 -17 -5 -14 -2 -13 16 4
13 12 21 29 19 39 -3 19 -29 30 -41 18z"/>
<path d="M3714 905 c-8 -20 4 -35 26 -35 23 0 32 13 24 34 -8 20 -43 21 -50 1z"/>
<path d="M2805 841 c-9 -16 3 -31 26 -31 14 0 19 6 17 17 -4 20 -33 29 -43 14z"/>
<path d="M2742 764 c-19 -21 -11 -57 17 -70 30 -15 45 -10 62 23 11 21 11 27
2 30 -7 3 -13 11 -13 19 0 19 -51 18 -68 -2z"/>
<path d="M2703 569 c-37 -35 -38 -65 -6 -103 17 -19 32 -26 60 -26 21 0 43 4
50 8 16 10 35 61 27 74 -4 6 0 14 7 19 11 7 10 9 -3 9 -10 0 -18 4 -18 8 0 8
-63 42 -78 42 -5 0 -22 -14 -39 -31z"/>
</g>
</svg>
