<svg width="200" height="200" viewBox="0 0 200 200" fill="none" xmlns="http://www.w3.org/2000/svg">
<path d="M33.3333 8.33325H166.667C168.877 8.33325 170.996 9.21123 172.559 10.774C174.122 12.3368 175 14.4564 175 16.6666V49.9999C175 52.2101 174.122 54.3297 172.559 55.8925C170.996 57.4553 168.877 58.3333 166.667 58.3333H33.3333C31.1232 58.3333 29.0036 57.4553 27.4408 55.8925C25.878 54.3297 25 52.2101 25 49.9999V16.6666C25 14.4564 25.878 12.3368 27.4408 10.774C29.0036 9.21123 31.1232 8.33325 33.3333 8.33325ZM33.3333 74.9999H166.667C168.877 74.9999 170.996 75.8779 172.559 77.4407C174.122 79.0035 175 81.1231 175 83.3333V116.667C175 118.877 174.122 120.996 172.559 122.559C170.996 124.122 168.877 125 166.667 125H33.3333C31.1232 125 29.0036 124.122 27.4408 122.559C25.878 120.996 25 118.877 25 116.667V83.3333C25 81.1231 25.878 79.0035 27.4408 77.4407C29.0036 75.8779 31.1232 74.9999 33.3333 74.9999ZM33.3333 141.667H166.667C168.877 141.667 170.996 142.545 172.559 144.107C174.122 145.67 175 147.79 175 150V183.333C175 185.543 174.122 187.663 172.559 189.226C170.996 190.789 168.877 191.667 166.667 191.667H33.3333C31.1232 191.667 29.0036 190.789 27.4408 189.226C25.878 187.663 25 185.543 25 183.333V150C25 147.79 25.878 145.67 27.4408 144.107C29.0036 142.545 31.1232 141.667 33.3333 141.667ZM75 41.6666H83.3333V24.9999H75V41.6666ZM75 108.333H83.3333V91.6666H75V108.333ZM75 175H83.3333V158.333H75V175ZM41.6667 24.9999V41.6666H58.3333V24.9999H41.6667ZM41.6667 91.6666V108.333H58.3333V91.6666H41.6667ZM41.6667 158.333V175H58.3333V158.333H41.6667Z" fill="white"/>
</svg>
